<svg width="113" height="28" viewBox="0 0 113 28" fill="none" xmlns="http://www.w3.org/2000/svg">
<g clip-path="url(#clip0_530_264)">
<path d="M35.9593 4.44966V6.89225H34.4832V4.4686L31.1387 0.132543H32.9511L35.2213 3.17157L37.5195 0.132543H39.2852L35.9593 4.44966Z" fill="white"/>
<path d="M40.0015 1.78933H41.4495V6.89225H40.0015V1.78933ZM39.9828 0H41.4682V1.02248H39.9828V0Z" fill="white"/>
<path d="M49.0734 4.34552C49.0734 4.45282 49.0672 4.56958 49.0547 4.69582H44.0006C44.0442 5.15025 44.2154 5.48792 44.5144 5.70883C44.8196 5.92973 45.2587 6.04018 45.8316 6.04018C46.3424 6.04018 46.7192 5.96444 46.9621 5.81297C47.205 5.66149 47.3482 5.48792 47.3918 5.29226H49.0174C48.9551 5.81612 48.6779 6.24531 48.1859 6.57982C47.7001 6.90803 46.9154 7.07213 45.8316 7.07213C44.7293 7.07213 43.8947 6.83544 43.3279 6.36207C42.7674 5.88871 42.4871 5.21652 42.4871 4.34552C42.4871 3.47453 42.7643 2.80234 43.3186 2.32897C43.8791 1.8556 44.6981 1.61892 45.7756 1.61892C46.8531 1.61892 47.6721 1.8556 48.2326 2.32897C48.7932 2.80234 49.0734 3.47453 49.0734 4.34552ZM45.7756 2.65086C44.7978 2.65086 44.2217 3.00747 44.0473 3.72068H47.5133C47.4261 3.36092 47.2361 3.09267 46.9434 2.91595C46.6569 2.73923 46.2676 2.65086 45.7756 2.65086Z" fill="white"/>
<path d="M50.1101 0.0378696H51.5582V6.89225H50.1101V0.0378696Z" fill="white"/>
<path d="M57.6967 2.46152V0.0378696H59.1447V6.89225H57.7247V6.22006H57.678C57.2046 6.78811 56.5009 7.07213 55.5666 7.07213C54.6324 7.07213 53.9037 6.83544 53.3805 6.36207C52.8574 5.88871 52.5958 5.22283 52.5958 4.36446C52.5958 3.50608 52.8542 2.84337 53.3712 2.37631C53.8944 1.90294 54.6262 1.66626 55.5666 1.66626C56.4635 1.66626 57.1579 1.93134 57.65 2.46152H57.6967ZM55.903 5.94551C56.4884 5.94551 56.9399 5.8035 57.2576 5.51948C57.5752 5.23546 57.734 4.85045 57.734 4.36446C57.734 3.87847 57.5752 3.49346 57.2576 3.20944C56.9399 2.92542 56.4884 2.78341 55.903 2.78341C54.7071 2.78341 54.1092 3.31042 54.1092 4.36446C54.1092 5.41849 54.7071 5.94551 55.903 5.94551Z" fill="white"/>
<path d="M33.2687 13.2852H38.1547V14.4213H33.2687V16.1633H38.4444V17.3562H31.7926V10.5965H38.3229V11.7894H33.2687V13.2852Z" fill="white"/>
<path d="M41.0292 12.9065H41.0759C41.6115 12.389 42.3558 12.1302 43.3087 12.1302C44.0374 12.1302 44.6197 12.2848 45.0557 12.5941C45.4979 12.8971 45.719 13.361 45.719 13.9858V17.3562H44.271V14.4781C44.271 14.0678 44.1464 13.7712 43.8973 13.5882C43.6481 13.3988 43.2776 13.3041 42.7855 13.3041C42.3122 13.3041 41.9043 13.4241 41.5617 13.6639C41.2254 13.8974 41.0572 14.2667 41.0572 14.7716V17.3562H39.6092V12.2533H41.0292V12.9065Z" fill="white"/>
<path d="M50.6713 12.1302C51.4 12.1302 51.9823 12.2848 52.4183 12.5941C52.8605 12.8971 53.0816 13.361 53.0816 13.9858V17.3562H51.6335V14.4781C51.6335 14.0678 51.5089 13.7712 51.2598 13.5882C51.0107 13.3988 50.6401 13.3041 50.1481 13.3041C49.6747 13.3041 49.2668 13.4241 48.9242 13.6639C48.5879 13.8974 48.4198 14.2667 48.4198 14.7716V17.3562H46.9717V10.5018H48.4198V12.9065H48.4665C48.9772 12.389 49.7121 12.1302 50.6713 12.1302Z" fill="white"/>
<path d="M60.1919 16.5325C60.1919 16.7219 60.2012 16.8797 60.2199 17.0059C60.2386 17.1321 60.276 17.23 60.332 17.2994V17.3562H58.912C58.8186 17.2615 58.7718 17.069 58.7718 16.7787V16.6177C58.5227 16.927 58.1957 17.1574 57.7909 17.3088C57.3861 17.4603 56.8878 17.5361 56.2961 17.5361C55.6297 17.5361 55.091 17.4004 54.6799 17.129C54.2688 16.8513 54.0633 16.441 54.0633 15.8982C54.0633 15.3807 54.2035 14.9957 54.4837 14.7432C54.7702 14.4907 55.1501 14.3424 55.6235 14.2982L58.0712 14.071C58.2829 14.0584 58.4355 14.0174 58.5289 13.9479C58.6286 13.8785 58.6784 13.7681 58.6784 13.6166C58.6784 13.4462 58.5788 13.3199 58.3795 13.2379C58.1802 13.1495 57.8501 13.1053 57.3892 13.1053C56.9283 13.1053 56.5764 13.159 56.3335 13.2663C56.0906 13.3673 55.9536 13.5377 55.9224 13.7775H54.3716C54.3903 13.1527 54.6581 12.714 55.1751 12.4616C55.6982 12.2091 56.4238 12.0829 57.3518 12.0829C58.3047 12.0829 59.0147 12.1933 59.4819 12.4142C59.9552 12.6288 60.1919 13.0296 60.1919 13.6166V16.5325ZM58.7438 14.8473C58.6691 14.9041 58.5227 14.9452 58.3047 14.9704L56.3522 15.1976C56.1031 15.2292 55.91 15.2986 55.773 15.4059C55.6422 15.5069 55.5768 15.6647 55.5768 15.8793C55.5768 16.1191 55.6671 16.2927 55.8477 16.4C56.0345 16.501 56.3055 16.5515 56.6605 16.5515C57.2335 16.5515 57.7224 16.4378 58.1272 16.2106C58.5383 15.9834 58.7438 15.6173 58.7438 15.1124V14.8473Z" fill="white"/>
<path d="M62.8614 12.9065H62.9081C63.4437 12.389 64.188 12.1302 65.1409 12.1302C65.8696 12.1302 66.4519 12.2848 66.8879 12.5941C67.3301 12.8971 67.5512 13.361 67.5512 13.9858V17.3562H66.1031V14.4781C66.1031 14.0678 65.9786 13.7712 65.7295 13.5882C65.4803 13.3988 65.1097 13.3041 64.6177 13.3041C64.1444 13.3041 63.7364 13.4241 63.3939 13.6639C63.0576 13.8974 62.8894 14.2667 62.8894 14.7716V17.3562H61.4413V12.2533H62.8614V12.9065Z" fill="white"/>
<path d="M71.8868 16.4094C72.4474 16.4094 72.8491 16.3211 73.092 16.1444C73.3411 15.9613 73.4937 15.7183 73.5498 15.4154H75.1847C75.0103 16.8292 73.911 17.5361 71.8868 17.5361C70.8094 17.5361 69.9904 17.2994 69.4298 16.826C68.8693 16.3526 68.589 15.6805 68.589 14.8095C68.589 13.9385 68.8662 13.2663 69.4205 12.7929C69.981 12.3195 70.8031 12.0829 71.8868 12.0829C73.8861 12.0829 74.9791 12.7771 75.166 14.1657H73.5498C73.4813 13.869 73.3256 13.6355 73.0827 13.4651C72.8398 13.2884 72.4412 13.2 71.8868 13.2C71.2952 13.2 70.8498 13.3357 70.5509 13.6071C70.2519 13.8785 70.1025 14.2793 70.1025 14.8095C70.1025 15.3333 70.2519 15.731 70.5509 16.0023C70.8498 16.2737 71.2952 16.4094 71.8868 16.4094Z" fill="white"/>
<path d="M82.5835 14.8095C82.5835 14.9168 82.5773 15.0335 82.5648 15.1598H77.5106C77.5542 15.6142 77.7255 15.9519 78.0244 16.1728C78.3296 16.3937 78.7687 16.5041 79.3417 16.5041C79.8524 16.5041 80.2292 16.4284 80.4721 16.2769C80.715 16.1254 80.8583 15.9519 80.9019 15.7562H82.5274C82.4652 16.2801 82.188 16.7092 81.696 17.0438C81.2102 17.372 80.4254 17.5361 79.3417 17.5361C78.2393 17.5361 77.4047 17.2994 76.838 16.826C76.2774 16.3526 75.9972 15.6805 75.9972 14.8095C75.9972 13.9385 76.2743 13.2663 76.8286 12.7929C77.3892 12.3195 78.2082 12.0829 79.2857 12.0829C80.3631 12.0829 81.1821 12.3195 81.7427 12.7929C82.3032 13.2663 82.5835 13.9385 82.5835 14.8095ZM79.2857 13.1148C78.3078 13.1148 77.7317 13.4714 77.5573 14.1846H81.0233C80.9361 13.8249 80.7462 13.5566 80.4534 13.3799C80.167 13.2032 79.7777 13.1148 79.2857 13.1148Z" fill="white"/>
<path d="M85.0402 12.9255H85.0869C85.3049 12.6541 85.5914 12.4552 85.9464 12.329C86.3077 12.1965 86.6969 12.1302 87.1142 12.1302C88.0734 12.1302 88.7211 12.4016 89.0574 12.9444C89.3003 12.6667 89.6149 12.4616 90.001 12.329C90.3871 12.1965 90.8138 12.1302 91.2809 12.1302C91.9286 12.1302 92.4518 12.2817 92.8504 12.5846C93.2552 12.8876 93.4577 13.3483 93.4577 13.9669V17.3562H92.0096V14.3645C92.0096 13.9984 91.8975 13.7302 91.6733 13.5598C91.4491 13.3894 91.1376 13.3041 90.739 13.3041C90.3467 13.3041 90.001 13.4146 89.702 13.6355C89.4093 13.8501 89.263 14.1815 89.263 14.6296V17.3562H87.8149V14.3645C87.8149 13.9984 87.7028 13.7302 87.4786 13.5598C87.2544 13.3894 86.9429 13.3041 86.5443 13.3041C86.152 13.3041 85.8063 13.4146 85.5073 13.6355C85.2146 13.8501 85.0683 14.1815 85.0683 14.6296V17.3562H83.6202V12.2533H85.0402V12.9255Z" fill="white"/>
<path d="M101.077 14.8095C101.077 14.9168 101.07 15.0335 101.058 15.1598H96.0037C96.0472 15.6142 96.2185 15.9519 96.5175 16.1728C96.8227 16.3937 97.2617 16.5041 97.8347 16.5041C98.3455 16.5041 98.7223 16.4284 98.9652 16.2769C99.2081 16.1254 99.3513 15.9519 99.3949 15.7562H101.02C100.958 16.2801 100.681 16.7092 100.189 17.0438C99.7032 17.372 98.9185 17.5361 97.8347 17.5361C96.7324 17.5361 95.8978 17.2994 95.331 16.826C94.7705 16.3526 94.4902 15.6805 94.4902 14.8095C94.4902 13.9385 94.7674 13.2663 95.3217 12.7929C95.8822 12.3195 96.7012 12.0829 97.7787 12.0829C98.8562 12.0829 99.6752 12.3195 100.236 12.7929C100.796 13.2663 101.077 13.9385 101.077 14.8095ZM97.7787 13.1148C96.8009 13.1148 96.2248 13.4714 96.0504 14.1846H99.5164C99.4292 13.8249 99.2392 13.5566 98.9465 13.3799C98.66 13.2032 98.2707 13.1148 97.7787 13.1148Z" fill="white"/>
<path d="M103.533 12.9065H103.58C104.116 12.389 104.86 12.1302 105.813 12.1302C106.541 12.1302 107.124 12.2848 107.56 12.5941C108.002 12.8971 108.223 13.361 108.223 13.9858V17.3562H106.775V14.4781C106.775 14.0678 106.65 13.7712 106.401 13.5882C106.152 13.3988 105.782 13.3041 105.29 13.3041C104.816 13.3041 104.408 13.4241 104.066 13.6639C103.729 13.8974 103.561 14.2667 103.561 14.7716V17.3562H102.113V12.2533H103.533V12.9065Z" fill="white"/>
<path d="M112.076 16.239C112.456 16.239 112.758 16.2169 112.982 16.1728V17.3562C112.858 17.3814 112.689 17.4004 112.478 17.413C112.272 17.4319 112.076 17.4414 111.889 17.4414C111.378 17.4414 110.98 17.3941 110.693 17.2994C110.413 17.2047 110.211 17.0532 110.086 16.8449C109.968 16.6304 109.909 16.3369 109.909 15.9645V13.2189H108.881V12.2533H109.909V10.8521H111.357V12.2533H113.001V13.2189H111.357V15.7183C111.357 15.914 111.413 16.0497 111.525 16.1254C111.637 16.2012 111.821 16.239 112.076 16.239Z" fill="white"/>
<path d="M31.7926 27.8201V21.0604H33.2687V26.5704H38.4257V27.8201H31.7926Z" fill="white"/>
<path d="M45.3847 26.9965C45.3847 27.1858 45.394 27.3436 45.4127 27.4698C45.4314 27.5961 45.4688 27.6939 45.5248 27.7633V27.8201H44.1048C44.0114 27.7254 43.9646 27.5329 43.9646 27.2426V27.0817C43.7155 27.3909 43.3885 27.6213 42.9837 27.7728C42.5789 27.9243 42.0806 28 41.4889 28C40.8225 28 40.2838 27.8643 39.8727 27.5929C39.4616 27.3152 39.2561 26.9049 39.2561 26.3621C39.2561 25.8446 39.3963 25.4596 39.6765 25.2071C39.963 24.9547 40.3429 24.8063 40.8163 24.7622L43.264 24.5349C43.4757 24.5223 43.6283 24.4813 43.7217 24.4119C43.8214 24.3424 43.8712 24.232 43.8712 24.0805C43.8712 23.9101 43.7716 23.7839 43.5723 23.7018C43.373 23.6135 43.0429 23.5693 42.582 23.5693C42.1211 23.5693 41.7692 23.6229 41.5263 23.7302C41.2834 23.8312 41.1464 24.0016 41.1152 24.2415H39.5644C39.5831 23.6166 39.8509 23.178 40.3679 22.9255C40.891 22.673 41.6166 22.5468 42.5446 22.5468C43.4975 22.5468 44.2075 22.6572 44.6747 22.8782C45.148 23.0927 45.3847 23.4935 45.3847 24.0805V26.9965ZM43.9366 25.3113C43.8619 25.3681 43.7155 25.4091 43.4975 25.4343L41.545 25.6616C41.2959 25.6931 41.1028 25.7625 40.9658 25.8698C40.835 25.9708 40.7696 26.1286 40.7696 26.3432C40.7696 26.583 40.8599 26.7566 41.0405 26.8639C41.2273 26.9649 41.4983 27.0154 41.8533 27.0154C42.4263 27.0154 42.9152 26.9018 43.32 26.6746C43.7311 26.4474 43.9366 26.0813 43.9366 25.5764V25.3113Z" fill="white"/>
<path d="M48.1289 23.3894C48.6209 22.8592 49.3154 22.5941 50.2122 22.5941C51.1527 22.5941 51.8814 22.8308 52.3983 23.3042C52.9215 23.7712 53.1831 24.434 53.1831 25.2923C53.1831 26.1507 52.9215 26.8166 52.3983 27.2899C51.8752 27.7633 51.1465 28 50.2122 28C49.278 28 48.5742 27.716 48.1009 27.1479H48.0542V27.8201H46.6341V20.9657H48.0822V23.3894H48.1289ZM49.8759 26.8734C51.0717 26.8734 51.6696 26.3464 51.6696 25.2923C51.6696 24.2383 51.0717 23.7113 49.8759 23.7113C49.2905 23.7113 48.8389 23.8533 48.5213 24.1373C48.2036 24.4213 48.0448 24.8063 48.0448 25.2923C48.0448 25.7783 48.2036 26.1633 48.5213 26.4474C48.8389 26.7314 49.2905 26.8734 49.8759 26.8734Z" fill="white"/>
<path d="M58.429 24.2509C58.3979 23.9858 58.2546 23.7996 57.9993 23.6923C57.7439 23.585 57.3702 23.5314 56.8782 23.5314C56.4111 23.5314 56.0748 23.5787 55.8692 23.6734C55.6637 23.7618 55.5609 23.8943 55.5609 24.071C55.5609 24.2162 55.6139 24.3235 55.7198 24.3929C55.8319 24.456 56.0156 24.4971 56.2709 24.516L58.4757 24.7148C59.03 24.7653 59.4536 24.9073 59.7463 25.1409C60.039 25.3681 60.1854 25.7468 60.1854 26.2769C60.1854 26.7251 60.0639 27.0754 59.821 27.3278C59.5844 27.5803 59.2387 27.7538 58.784 27.8485C58.3356 27.9495 57.7595 28 57.0557 28C56.3706 28 55.7976 27.9495 55.3367 27.8485C54.8821 27.7475 54.5208 27.5613 54.253 27.2899C53.9914 27.0122 53.8544 26.6241 53.8419 26.1255H55.4115C55.4488 26.4537 55.6045 26.6809 55.8786 26.8071C56.1526 26.9333 56.5637 26.9965 57.1118 26.9965C57.6349 26.9965 58.0148 26.946 58.2515 26.845C58.4882 26.7377 58.6065 26.5767 58.6065 26.3621C58.6065 26.1917 58.5505 26.0718 58.4384 26.0024C58.3325 25.9266 58.1519 25.8762 57.8965 25.8509L55.7945 25.6332C55.2215 25.5764 54.7824 25.4375 54.4772 25.2166C54.1783 24.9957 54.0288 24.6391 54.0288 24.1468C54.0288 23.5535 54.2717 23.1401 54.7575 22.9066C55.2433 22.6667 55.9595 22.5468 56.9062 22.5468C57.8716 22.5468 58.619 22.673 59.1484 22.9255C59.684 23.178 59.9643 23.6198 59.9892 24.2509H58.429Z" fill="white"/>
<path d="M4.26758 25.9636H23.352V28H4.26758V25.9636Z" fill="white"/>
<path fill-rule="evenodd" clip-rule="evenodd" d="M13.8107 16.5454C16.0297 16.5454 17.8285 14.7219 17.8285 12.4726C17.8285 10.2233 16.0297 8.3999 13.8107 8.3999C11.5918 8.3999 9.79297 10.2233 9.79297 12.4726C9.79297 14.7219 11.5918 16.5454 13.8107 16.5454Z" fill="white"/>
<path d="M15.5681 24.8191C21.5309 23.9545 26.1148 18.7563 26.1148 12.4727C26.1148 5.58422 20.6058 0 13.8103 0C7.01486 0 1.50586 5.58422 1.50586 12.4727C1.50586 18.7563 6.08971 23.9545 12.0525 24.8191V17.2431C11.4195 17.0034 10.847 16.6378 10.3646 16.1764L9.54142 17.0108V21.1274L7.54626 21.1273L7.54651 20.1091H8.53697V17.9688L6.06338 20.3012V17.3973H4.7703V16.3792H7.06782V17.9636L8.69048 16.4335L9.70474 15.4055C9.12748 14.5765 8.78808 13.5647 8.78808 12.4727C8.78808 11.3807 9.12723 10.3691 9.70449 9.54011L8.69048 8.51211L7.06782 6.98198V8.56642H4.7703V7.54824H6.06338V4.64434L8.53697 6.97676V4.83649H7.54651L7.54626 3.81831L9.54142 3.81818V7.93478L10.3644 8.76914C11.2636 7.90906 12.4763 7.38182 13.8103 7.38182C15.1443 7.38182 16.357 7.90906 17.2562 8.76914L18.0792 7.93478V3.81818L20.0744 3.81831L20.0741 4.83649H19.0836V6.97676L21.5572 4.64434V7.54824H22.8503V8.56642H20.5528V6.98198L18.9301 8.51211L17.9161 9.54011C18.4934 10.3691 18.8325 11.3807 18.8325 12.4727C18.8325 13.5647 18.4931 14.5765 17.9159 15.4055L18.9301 16.4335L20.5528 17.9636V16.3792H22.8503V17.3973H21.5572V20.3012L19.0836 17.9688V20.1091H20.0741L20.0744 21.1273L18.0792 21.1274V17.0108L17.256 16.1764C16.7736 16.6378 16.2011 17.0034 15.5681 17.2431V24.8191Z" fill="url(#paint0_radial_530_264)"/>
<path d="M13.0566 17.3091H14.5633V24.9454H13.0566V17.3091Z" fill="white"/>
</g>
<defs>
<radialGradient id="paint0_radial_530_264" cx="0" cy="0" r="1" gradientUnits="userSpaceOnUse" gradientTransform="translate(13.8103 12.4096) rotate(90) scale(12.4096 12.2421)">
<stop offset="0.181406" stop-color="white" stop-opacity="0"/>
<stop offset="0.805208" stop-color="white"/>
</radialGradient>
<clipPath id="clip0_530_264">
<rect width="113" height="28" fill="white"/>
</clipPath>
</defs>
</svg>
